<mxfile host="app.diagrams.net" modified="2023-03-21T03:09:18.826Z" agent="5.0 (Windows NT 10.0; Win64; x64) AppleWebKit/537.36 (KHTML, like Gecko) Chrome/86.0.4240.198 Safari/537.36" etag="9LvlYb8lMXMgxk_SAZE1" version="21.0.6" type="github">
  <diagram id="C5RBs43oDa-KdzZeNtuy" name="Page-1">
    <mxGraphModel dx="2169" dy="1161" grid="0" gridSize="10" guides="1" tooltips="1" connect="1" arrows="1" fold="1" page="1" pageScale="1" pageWidth="827" pageHeight="1169" math="0" shadow="0">
      <root>
        <mxCell id="WIyWlLk6GJQsqaUBKTNV-0" />
        <mxCell id="WIyWlLk6GJQsqaUBKTNV-1" parent="WIyWlLk6GJQsqaUBKTNV-0" />
        <mxCell id="jTy8Jwr7WfRqJqqD9ecX-31" value="" style="html=1;dashed=1;whiteSpace=wrap;dashPattern=8 8;" vertex="1" parent="WIyWlLk6GJQsqaUBKTNV-1">
          <mxGeometry x="406" y="119.5" width="358" height="627.5" as="geometry" />
        </mxCell>
        <mxCell id="jTy8Jwr7WfRqJqqD9ecX-7" value="" style="edgeStyle=orthogonalEdgeStyle;rounded=0;orthogonalLoop=1;jettySize=auto;html=1;fontSize=18;" edge="1" parent="WIyWlLk6GJQsqaUBKTNV-1" source="jTy8Jwr7WfRqJqqD9ecX-5" target="jTy8Jwr7WfRqJqqD9ecX-6">
          <mxGeometry relative="1" as="geometry" />
        </mxCell>
        <mxCell id="jTy8Jwr7WfRqJqqD9ecX-5" value="开始" style="html=1;dashed=0;whiteSpace=wrap;shape=mxgraph.dfd.start;fontSize=18;" vertex="1" parent="WIyWlLk6GJQsqaUBKTNV-1">
          <mxGeometry x="204" y="120" width="80" height="30" as="geometry" />
        </mxCell>
        <mxCell id="jTy8Jwr7WfRqJqqD9ecX-9" value="" style="edgeStyle=orthogonalEdgeStyle;rounded=0;orthogonalLoop=1;jettySize=auto;html=1;fontSize=18;" edge="1" parent="WIyWlLk6GJQsqaUBKTNV-1" source="jTy8Jwr7WfRqJqqD9ecX-6" target="jTy8Jwr7WfRqJqqD9ecX-8">
          <mxGeometry relative="1" as="geometry" />
        </mxCell>
        <mxCell id="jTy8Jwr7WfRqJqqD9ecX-6" value="颜色量化" style="whiteSpace=wrap;html=1;dashed=0;fontSize=18;" vertex="1" parent="WIyWlLk6GJQsqaUBKTNV-1">
          <mxGeometry x="184" y="213" width="120" height="60" as="geometry" />
        </mxCell>
        <mxCell id="jTy8Jwr7WfRqJqqD9ecX-11" value="" style="edgeStyle=orthogonalEdgeStyle;rounded=0;orthogonalLoop=1;jettySize=auto;html=1;fontSize=18;" edge="1" parent="WIyWlLk6GJQsqaUBKTNV-1" source="jTy8Jwr7WfRqJqqD9ecX-8" target="jTy8Jwr7WfRqJqqD9ecX-10">
          <mxGeometry relative="1" as="geometry" />
        </mxCell>
        <mxCell id="jTy8Jwr7WfRqJqqD9ecX-33" value="" style="edgeStyle=orthogonalEdgeStyle;rounded=0;orthogonalLoop=1;jettySize=auto;html=1;" edge="1" parent="WIyWlLk6GJQsqaUBKTNV-1" source="jTy8Jwr7WfRqJqqD9ecX-8" target="jTy8Jwr7WfRqJqqD9ecX-32">
          <mxGeometry relative="1" as="geometry" />
        </mxCell>
        <mxCell id="jTy8Jwr7WfRqJqqD9ecX-8" value="量化后颜色数量 == 2" style="rhombus;whiteSpace=wrap;html=1;dashed=0;fontSize=18;" vertex="1" parent="WIyWlLk6GJQsqaUBKTNV-1">
          <mxGeometry x="140.25" y="329" width="207.5" height="112" as="geometry" />
        </mxCell>
        <mxCell id="jTy8Jwr7WfRqJqqD9ecX-14" value="" style="edgeStyle=orthogonalEdgeStyle;rounded=0;orthogonalLoop=1;jettySize=auto;html=1;fontSize=18;" edge="1" parent="WIyWlLk6GJQsqaUBKTNV-1" source="jTy8Jwr7WfRqJqqD9ecX-10" target="jTy8Jwr7WfRqJqqD9ecX-13">
          <mxGeometry relative="1" as="geometry" />
        </mxCell>
        <mxCell id="jTy8Jwr7WfRqJqqD9ecX-34" style="edgeStyle=orthogonalEdgeStyle;rounded=0;orthogonalLoop=1;jettySize=auto;html=1;exitX=0;exitY=0.5;exitDx=0;exitDy=0;" edge="1" parent="WIyWlLk6GJQsqaUBKTNV-1" source="jTy8Jwr7WfRqJqqD9ecX-10" target="jTy8Jwr7WfRqJqqD9ecX-32">
          <mxGeometry relative="1" as="geometry">
            <mxPoint x="55" y="393" as="targetPoint" />
            <Array as="points">
              <mxPoint x="55" y="502" />
            </Array>
          </mxGeometry>
        </mxCell>
        <mxCell id="jTy8Jwr7WfRqJqqD9ecX-10" value="色差&amp;nbsp; &amp;gt; T" style="rhombus;whiteSpace=wrap;html=1;dashed=0;fontSize=18;" vertex="1" parent="WIyWlLk6GJQsqaUBKTNV-1">
          <mxGeometry x="189" y="465" width="110" height="75" as="geometry" />
        </mxCell>
        <mxCell id="jTy8Jwr7WfRqJqqD9ecX-16" value="" style="edgeStyle=orthogonalEdgeStyle;rounded=0;orthogonalLoop=1;jettySize=auto;html=1;fontSize=18;" edge="1" parent="WIyWlLk6GJQsqaUBKTNV-1" source="jTy8Jwr7WfRqJqqD9ecX-13" target="jTy8Jwr7WfRqJqqD9ecX-15">
          <mxGeometry relative="1" as="geometry" />
        </mxCell>
        <mxCell id="jTy8Jwr7WfRqJqqD9ecX-13" value="根据量化颜色&lt;br style=&quot;font-size: 18px;&quot;&gt;进行迭代聚类" style="whiteSpace=wrap;html=1;dashed=0;fontSize=18;" vertex="1" parent="WIyWlLk6GJQsqaUBKTNV-1">
          <mxGeometry x="183" y="584.5" width="120" height="60.5" as="geometry" />
        </mxCell>
        <mxCell id="jTy8Jwr7WfRqJqqD9ecX-18" value="" style="edgeStyle=orthogonalEdgeStyle;rounded=0;orthogonalLoop=1;jettySize=auto;html=1;fontSize=18;" edge="1" parent="WIyWlLk6GJQsqaUBKTNV-1" source="jTy8Jwr7WfRqJqqD9ecX-15" target="jTy8Jwr7WfRqJqqD9ecX-17">
          <mxGeometry relative="1" as="geometry" />
        </mxCell>
        <mxCell id="jTy8Jwr7WfRqJqqD9ecX-15" value="联通性检测" style="whiteSpace=wrap;html=1;dashed=0;fontSize=18;" vertex="1" parent="WIyWlLk6GJQsqaUBKTNV-1">
          <mxGeometry x="184" y="676" width="120" height="59.75" as="geometry" />
        </mxCell>
        <mxCell id="jTy8Jwr7WfRqJqqD9ecX-17" value="完成" style="whiteSpace=wrap;html=1;dashed=0;fontSize=18;" vertex="1" parent="WIyWlLk6GJQsqaUBKTNV-1">
          <mxGeometry x="183" y="778" width="122" height="52.13" as="geometry" />
        </mxCell>
        <mxCell id="jTy8Jwr7WfRqJqqD9ecX-19" value="" style="shape=flexArrow;endArrow=classic;html=1;rounded=0;fontSize=18;" edge="1" parent="WIyWlLk6GJQsqaUBKTNV-1">
          <mxGeometry width="50" height="50" relative="1" as="geometry">
            <mxPoint x="313.5" y="245" as="sourcePoint" />
            <mxPoint x="393" y="245" as="targetPoint" />
          </mxGeometry>
        </mxCell>
        <mxCell id="jTy8Jwr7WfRqJqqD9ecX-22" value="" style="edgeStyle=orthogonalEdgeStyle;rounded=0;orthogonalLoop=1;jettySize=auto;html=1;fontSize=18;" edge="1" parent="WIyWlLk6GJQsqaUBKTNV-1" source="jTy8Jwr7WfRqJqqD9ecX-20" target="jTy8Jwr7WfRqJqqD9ecX-21">
          <mxGeometry relative="1" as="geometry" />
        </mxCell>
        <mxCell id="jTy8Jwr7WfRqJqqD9ecX-20" value="开始" style="html=1;dashed=0;whiteSpace=wrap;fontSize=18;" vertex="1" parent="WIyWlLk6GJQsqaUBKTNV-1">
          <mxGeometry x="534" y="147" width="100" height="50" as="geometry" />
        </mxCell>
        <mxCell id="jTy8Jwr7WfRqJqqD9ecX-24" value="" style="edgeStyle=orthogonalEdgeStyle;rounded=0;orthogonalLoop=1;jettySize=auto;html=1;fontSize=18;" edge="1" parent="WIyWlLk6GJQsqaUBKTNV-1" source="jTy8Jwr7WfRqJqqD9ecX-21" target="jTy8Jwr7WfRqJqqD9ecX-23">
          <mxGeometry relative="1" as="geometry" />
        </mxCell>
        <mxCell id="jTy8Jwr7WfRqJqqD9ecX-21" value="计算超像素的直方图&lt;br style=&quot;font-size: 18px;&quot;&gt;&lt;span style=&quot;background-color: initial; font-size: 18px;&quot;&gt;weight&lt;/span&gt;&lt;font style=&quot;background-color: initial; font-size: 18px;&quot; face=&quot;宋体&quot;&gt;、&lt;/font&gt;&lt;font style=&quot;background-color: initial; font-size: 18px;&quot; face=&quot;Times New Roman&quot;&gt;momentRed&lt;/font&gt;&lt;font style=&quot;background-color: initial; font-size: 18px;&quot; face=&quot;宋体&quot;&gt;、&lt;/font&gt;&lt;font style=&quot;background-color: initial; font-size: 18px;&quot; face=&quot;Times New Roman&quot;&gt;momentGreen&lt;/font&gt;&lt;font style=&quot;background-color: initial; font-size: 18px;&quot; face=&quot;宋体&quot;&gt;、&lt;br style=&quot;font-size: 18px;&quot;&gt;&lt;/font&gt;&lt;span style=&quot;background-color: initial; font-size: 18px;&quot;&gt;momentBlue&lt;/span&gt;&lt;span style=&quot;background-color: initial; font-size: 18px;&quot;&gt;&amp;nbsp;&lt;font face=&quot;宋体&quot; style=&quot;font-size: 18px;&quot;&gt;和&lt;/font&gt; &lt;/span&gt;&lt;span style=&quot;background-color: initial; font-size: 18px;&quot;&gt;moment&lt;/span&gt;" style="whiteSpace=wrap;html=1;dashed=0;fontSize=18;" vertex="1" parent="WIyWlLk6GJQsqaUBKTNV-1">
          <mxGeometry x="428" y="220" width="312" height="80" as="geometry" />
        </mxCell>
        <mxCell id="jTy8Jwr7WfRqJqqD9ecX-26" value="" style="edgeStyle=orthogonalEdgeStyle;rounded=0;orthogonalLoop=1;jettySize=auto;html=1;fontSize=18;" edge="1" parent="WIyWlLk6GJQsqaUBKTNV-1" source="jTy8Jwr7WfRqJqqD9ecX-23" target="jTy8Jwr7WfRqJqqD9ecX-25">
          <mxGeometry relative="1" as="geometry" />
        </mxCell>
        <mxCell id="jTy8Jwr7WfRqJqqD9ecX-23" value="根据直方图计算颜色立方体的累计&lt;br style=&quot;font-size: 18px;&quot;&gt;&amp;nbsp;&lt;span style=&quot;border-color: var(--border-color); background-color: initial; font-size: 18px;&quot;&gt;moment&lt;/span&gt;" style="whiteSpace=wrap;html=1;dashed=0;fontSize=18;" vertex="1" parent="WIyWlLk6GJQsqaUBKTNV-1">
          <mxGeometry x="437.75" y="329" width="292.25" height="78" as="geometry" />
        </mxCell>
        <mxCell id="jTy8Jwr7WfRqJqqD9ecX-28" value="" style="edgeStyle=orthogonalEdgeStyle;rounded=0;orthogonalLoop=1;jettySize=auto;html=1;fontSize=18;" edge="1" parent="WIyWlLk6GJQsqaUBKTNV-1" source="jTy8Jwr7WfRqJqqD9ecX-25" target="jTy8Jwr7WfRqJqqD9ecX-27">
          <mxGeometry relative="1" as="geometry" />
        </mxCell>
        <mxCell id="jTy8Jwr7WfRqJqqD9ecX-25" value="找到方差最大的颜色立方体&lt;br style=&quot;font-size: 18px;&quot;&gt;切分为两个立方体" style="whiteSpace=wrap;html=1;dashed=0;fontSize=18;" vertex="1" parent="WIyWlLk6GJQsqaUBKTNV-1">
          <mxGeometry x="465.94" y="435" width="236.13" height="68" as="geometry" />
        </mxCell>
        <mxCell id="jTy8Jwr7WfRqJqqD9ecX-30" value="" style="edgeStyle=orthogonalEdgeStyle;rounded=0;orthogonalLoop=1;jettySize=auto;html=1;fontSize=18;" edge="1" parent="WIyWlLk6GJQsqaUBKTNV-1" source="jTy8Jwr7WfRqJqqD9ecX-27" target="jTy8Jwr7WfRqJqqD9ecX-29">
          <mxGeometry relative="1" as="geometry" />
        </mxCell>
        <mxCell id="jTy8Jwr7WfRqJqqD9ecX-27" value="计算使得子立方体方差最小的&lt;br style=&quot;font-size: 18px;&quot;&gt;切分方向与位置" style="whiteSpace=wrap;html=1;dashed=0;fontSize=18;" vertex="1" parent="WIyWlLk6GJQsqaUBKTNV-1">
          <mxGeometry x="456.63" y="531" width="254.5" height="75" as="geometry" />
        </mxCell>
        <mxCell id="jTy8Jwr7WfRqJqqD9ecX-29" value="完成切分（量化）" style="whiteSpace=wrap;html=1;dashed=0;fontSize=18;" vertex="1" parent="WIyWlLk6GJQsqaUBKTNV-1">
          <mxGeometry x="504.31" y="656.01" width="159.13" height="58" as="geometry" />
        </mxCell>
        <mxCell id="jTy8Jwr7WfRqJqqD9ecX-32" value="终止" style="whiteSpace=wrap;html=1;fontSize=18;dashed=0;" vertex="1" parent="WIyWlLk6GJQsqaUBKTNV-1">
          <mxGeometry x="9" y="362" width="98" height="46" as="geometry" />
        </mxCell>
        <mxCell id="jTy8Jwr7WfRqJqqD9ecX-35" value="否" style="text;html=1;align=center;verticalAlign=middle;resizable=0;points=[];autosize=1;strokeColor=none;fillColor=none;fontSize=18;" vertex="1" parent="WIyWlLk6GJQsqaUBKTNV-1">
          <mxGeometry x="156" y="469" width="36" height="34" as="geometry" />
        </mxCell>
        <mxCell id="jTy8Jwr7WfRqJqqD9ecX-37" value="是" style="text;html=1;align=center;verticalAlign=middle;resizable=0;points=[];autosize=1;strokeColor=none;fillColor=none;fontSize=18;" vertex="1" parent="WIyWlLk6GJQsqaUBKTNV-1">
          <mxGeometry x="241" y="536" width="36" height="34" as="geometry" />
        </mxCell>
        <mxCell id="jTy8Jwr7WfRqJqqD9ecX-38" value="是" style="text;html=1;align=center;verticalAlign=middle;resizable=0;points=[];autosize=1;strokeColor=none;fillColor=none;fontSize=18;" vertex="1" parent="WIyWlLk6GJQsqaUBKTNV-1">
          <mxGeometry x="248" y="431" width="36" height="34" as="geometry" />
        </mxCell>
        <mxCell id="jTy8Jwr7WfRqJqqD9ecX-39" value="否" style="text;html=1;align=center;verticalAlign=middle;resizable=0;points=[];autosize=1;strokeColor=none;fillColor=none;fontSize=18;" vertex="1" parent="WIyWlLk6GJQsqaUBKTNV-1">
          <mxGeometry x="120" y="349" width="36" height="34" as="geometry" />
        </mxCell>
      </root>
    </mxGraphModel>
  </diagram>
</mxfile>
